<svg data-name="Layer 1" xmlns="http://www.w3.org/2000/svg" xmlns:xlink="http://www.w3.org/1999/xlink" viewBox="0 0 100 100">
  <defs>
    <linearGradient id="a" x1="10" y1="50" x2="89.97" y2="50" gradientUnits="userSpaceOnUse">
      <stop offset="0" stop-color="#ed1e79"/>
      <stop offset="1" stop-color="#662d8c"/>
    </linearGradient>
  </defs>
  <g fill="url(#a)">
    <path d="M89.72 11.13a1 1 0 00-.85-.85 58.71 58.71 0 00-22.57 2.19A59.91 59.91 0 0037 31.58a19.36 19.36 0 00-7.92-1.24c-4.54.18-11.49 1.93-18.78 9.23a1 1 0 00-.26 1 1 1 0 00.7.71l17.74 5.02 2.57 2.57-5.74 5.75a1 1 0 000 1.42L44 74.76a1 1 0 00.71.29 1 1 0 00.71-.29L51.17 69l2.48 2.49 5.06 17.77a1 1 0 00.71.7 1.15 1.15 0 00.26 0 1 1 0 00.7-.29c12.4-12.42 9-24 8-26.6a59.68 59.68 0 0018.71-28.3.26.26 0 000-.08 60.76 60.76 0 002.63-23.56zm-1.9 1a59.87 59.87 0 01-2.12 20.38l-18.2-18.2a59.93 59.93 0 0120.32-2.13zm-52.16 21a72.42 72.42 0 00-7.16 11L13 39.79c10.52-9.73 19.82-7.58 22.66-6.58zm9.06 39.43L27.43 55.33l5-5L49.76 67.6zm15.44 14.49l-4.4-15.45a71.76 71.76 0 0011-7.15c.98 2.99 2.87 12.26-6.6 22.6zm-5.34-17.21L30.23 45.22C39.86 27 53.6 18.7 65.33 15l19.72 19.68C81.32 46.43 73 60.19 54.82 69.84z" />
    <path d="M69.82 30.2a9.5 9.5 0 00-13.45 0 9.52 9.52 0 006.73 16.25 9.43 9.43 0 006.72-2.79 9.53 9.53 0 000-13.46zm-1.41 12.05a7.52 7.52 0 110-10.64 7.47 7.47 0 010 10.64z" />
    <path d="M36.34 76.5L24.55 88.29a1 1 0 000 1.42 1 1 0 00.71.29 1 1 0 00.7-.29l11.79-11.79a1 1 0 000-1.42 1 1 0 00-1.41 0z" />
    <path d="M30.62 69.38a1 1 0 00-1.41 0L10.29 88.29a1 1 0 000 1.42 1 1 0 001.42 0l18.91-18.92a1 1 0 000-1.41z" />
    <path d="M11 75.74a1 1 0 00.71-.29L23.5 63.66a1 1 0 000-1.41 1 1 0 00-1.42 0L10.29 74a1 1 0 000 1.42 1 1 0 00.71.32z" />
  </g>
</svg>
